<?xml version="1.0" encoding="utf-8"?>
<svg aria-hidden="true" focusable="false" data-prefix="fas" data-icon="microphone" class="svg-inline--fa fa-microphone fa-w-11" role="img" viewBox="0 25.529 354.011 486.471" xmlns="http://www.w3.org/2000/svg">
  <path d="M 177.005 327.116 C 209.232 327.116 235.357 300.992 235.357 268.764 L 235.357 171.513 C 235.357 139.284 209.232 113.16 177.005 113.16 C 144.779 113.16 118.654 139.284 118.654 171.513 L 118.654 268.764 C 118.654 300.992 144.779 327.116 177.005 327.116 Z M 274.257 229.863 L 264.533 229.863 C 259.159 229.863 254.807 234.215 254.807 239.589 L 254.807 268.764 C 254.807 314.229 215.609 350.712 169.231 346.189 C 128.81 342.244 99.204 305.908 99.204 265.299 L 99.204 239.589 C 99.204 234.215 94.851 229.863 89.478 229.863 L 79.753 229.863 C 74.38 229.863 70.028 234.215 70.028 239.589 L 70.028 263.999 C 70.028 318.485 108.911 367.056 162.418 374.436 L 162.418 395.192 L 128.379 395.192 C 123.005 395.192 118.654 399.545 118.654 404.918 L 118.654 414.643 C 118.654 420.016 123.005 424.368 128.379 424.368 L 225.632 424.368 C 231.005 424.368 235.357 420.016 235.357 414.643 L 235.357 404.918 C 235.357 399.545 231.005 395.192 225.632 395.192 L 191.594 395.192 L 191.594 374.665 C 243.69 367.518 283.982 322.8 283.982 268.764 L 283.982 239.589 C 283.982 234.215 279.631 229.863 274.257 229.863 Z" style="fill: rgb(58, 119, 168);"/>
</svg>