<?xml version="1.0" encoding="utf-8"?>
<svg aria-hidden="true" focusable="false" data-prefix="fas" data-icon="phone-alt" class="svg-inline--fa fa-phone-alt fa-w-16" role="img" viewBox="0 0 512 512" xmlns="http://www.w3.org/2000/svg">
  <path d="M 493.523 362.968 L 382.394 315.341 C 372.642 311.185 361.316 313.975 354.612 322.187 L 305.397 382.316 C 228.16 345.899 166.001 283.741 129.585 206.504 L 189.714 157.289 C 197.943 150.596 200.737 139.257 196.56 129.507 L 148.933 18.378 C 144.33 7.824 132.874 2.034 121.647 4.586 L 18.455 28.399 C 7.65 30.894 -0.002 40.518 0 51.607 C 0 306.113 206.284 512 460.393 512 C 471.486 512.007 481.115 504.353 483.611 493.545 L 507.424 390.353 C 509.96 379.072 504.126 367.58 493.523 362.968 Z" style="fill: rgba(255, 255, 255, 0.8);"/>
</svg>