<?xml version="1.0" encoding="utf-8"?>
<svg viewBox="0 0 500 500" xmlns="http://www.w3.org/2000/svg">
  <path d="M 215.384 250.552 C 282.027 250.552 336.039 196.097 336.039 128.908 C 336.039 61.718 282.027 7.263 215.384 7.263 C 148.743 7.263 94.73 61.718 94.73 128.908 C 94.73 196.097 148.743 250.552 215.384 250.552 Z M 299.842 280.964 L 284.1 280.964 C 263.175 290.657 239.893 296.169 215.384 296.169 C 190.875 296.169 167.689 290.657 146.668 280.964 L 130.926 280.964 C 60.985 280.964 4.24 338.173 4.24 408.689 L 4.24 448.224 C 4.24 473.41 24.506 493.841 49.485 493.841 L 381.283 493.841 C 406.264 493.841 426.53 473.41 426.53 448.224 L 426.53 408.689 C 426.53 338.173 369.783 280.964 299.842 280.964 Z" style="fill: rgb(255, 255, 255);"/>
</svg>